solid OpenSCAD_Model
  facet normal 1 -0 0
    outer loop
      vertex 15 -20 5.75
      vertex 15 16 0.25
      vertex 15 16 5.75
    endloop
  endfacet
  facet normal 1 0 0
    outer loop
      vertex 15 16 0.25
      vertex 15 -20 5.75
      vertex 15 -20 0.25
    endloop
  endfacet
  facet normal -0 0 1
    outer loop
      vertex -15 23.5 5.75
      vertex -13 16 5.75
      vertex -13 23.5 5.75
    endloop
  endfacet
  facet normal 0 0 1
    outer loop
      vertex -15 -16 5.75
      vertex -14 14 5.75
      vertex -15 23.5 5.75
    endloop
  endfacet
  facet normal 0 0 1
    outer loop
      vertex -13 16 5.75
      vertex -15 23.5 5.75
      vertex -14 14 5.75
    endloop
  endfacet
  facet normal -0 0 1
    outer loop
      vertex 5 -14 5.75
      vertex 13 -16 5.75
      vertex 13 -14 5.75
    endloop
  endfacet
  facet normal 0 0 1
    outer loop
      vertex 13 -16 5.75
      vertex 5 -14 5.75
      vertex 5 -16 5.75
    endloop
  endfacet
  facet normal 0 0 1
    outer loop
      vertex 14 -14 5.75
      vertex 15 16 5.75
      vertex 14 14 5.75
    endloop
  endfacet
  facet normal -0 0 1
    outer loop
      vertex -13 16 5.75
      vertex 14 14 5.75
      vertex 15 16 5.75
    endloop
  endfacet
  facet normal 0 0 1
    outer loop
      vertex 14 14 5.75
      vertex -13 16 5.75
      vertex -14 14 5.75
    endloop
  endfacet
  facet normal 0 0 1
    outer loop
      vertex 15 16 5.75
      vertex 14 -14 5.75
      vertex 15 -20 5.75
    endloop
  endfacet
  facet normal 0 0 1
    outer loop
      vertex 13 -16 5.75
      vertex 14 -14 5.75
      vertex 13 -14 5.75
    endloop
  endfacet
  facet normal 0 0 1
    outer loop
      vertex 14 -14 5.75
      vertex 13 -16 5.75
      vertex 15 -20 5.75
    endloop
  endfacet
  facet normal 0 0 1
    outer loop
      vertex 15 -20 5.75
      vertex 13 -16 5.75
      vertex 13 -20 5.75
    endloop
  endfacet
  facet normal -0 0 1
    outer loop
      vertex -14 -14 5.75
      vertex -5 -16 5.75
      vertex -5 -14 5.75
    endloop
  endfacet
  facet normal 0 0 1
    outer loop
      vertex -14 -14 5.75
      vertex -15 -16 5.75
      vertex -5 -16 5.75
    endloop
  endfacet
  facet normal 0 0 1
    outer loop
      vertex -14 14 5.75
      vertex -15 -16 5.75
      vertex -14 -14 5.75
    endloop
  endfacet
  facet normal 0 0 -1
    outer loop
      vertex 13 -16 0.25
      vertex -12 -5.25 0.25
      vertex 12 -5.25 0.25
    endloop
  endfacet
  facet normal 0 0 -1
    outer loop
      vertex -15 -16 0.25
      vertex -12 7.75 0.25
      vertex -12 -5.25 0.25
    endloop
  endfacet
  facet normal 0 0 -1
    outer loop
      vertex -15 -16 0.25
      vertex -12 -5.25 0.25
      vertex 13 -16 0.25
    endloop
  endfacet
  facet normal 0 0 -1
    outer loop
      vertex -15 23.5 0.25
      vertex -12 7.75 0.25
      vertex -15 -16 0.25
    endloop
  endfacet
  facet normal 0 0 -1
    outer loop
      vertex -12 7.75 0.25
      vertex -15 23.5 0.25
      vertex -13 16 0.25
    endloop
  endfacet
  facet normal 0 0 -1
    outer loop
      vertex -13 16 0.25
      vertex -15 23.5 0.25
      vertex -13 23.5 0.25
    endloop
  endfacet
  facet normal 0 0 -1
    outer loop
      vertex 13 -16 0.25
      vertex 15 -20 0.25
      vertex 13 -20 0.25
    endloop
  endfacet
  facet normal 0 0 -1
    outer loop
      vertex 12 -5.25 0.25
      vertex 15 -20 0.25
      vertex 13 -16 0.25
    endloop
  endfacet
  facet normal 0 0 -1
    outer loop
      vertex 15 -20 0.25
      vertex 12 -5.25 0.25
      vertex 15 16 0.25
    endloop
  endfacet
  facet normal 0 0 -1
    outer loop
      vertex 12 7.75 0.25
      vertex 15 16 0.25
      vertex 12 -5.25 0.25
    endloop
  endfacet
  facet normal 0 0 -1
    outer loop
      vertex -13 16 0.25
      vertex 12 7.75 0.25
      vertex -12 7.75 0.25
    endloop
  endfacet
  facet normal 0 0 -1
    outer loop
      vertex 12 7.75 0.25
      vertex -13 16 0.25
      vertex 15 16 0.25
    endloop
  endfacet
  facet normal -1 0 0
    outer loop
      vertex -15 -16 0.25
      vertex -15 23.5 5.75
      vertex -15 23.5 0.25
    endloop
  endfacet
  facet normal -1 -0 0
    outer loop
      vertex -15 23.5 5.75
      vertex -15 -16 0.25
      vertex -15 -16 5.75
    endloop
  endfacet
  facet normal 0 1 -0
    outer loop
      vertex 15 16 0.25
      vertex -13 16 5.75
      vertex 15 16 5.75
    endloop
  endfacet
  facet normal 0 1 0
    outer loop
      vertex -13 16 5.75
      vertex 15 16 0.25
      vertex -13 16 0.25
    endloop
  endfacet
  facet normal 0 -1 0
    outer loop
      vertex -15 -16 5.75
      vertex -5 -16 3.5
      vertex -5 -16 5.75
    endloop
  endfacet
  facet normal 0 -1 0
    outer loop
      vertex 13 -16 0.25
      vertex -5 -16 3.5
      vertex -15 -16 0.25
    endloop
  endfacet
  facet normal 0 -1 0
    outer loop
      vertex -15 -16 0.25
      vertex -5 -16 3.5
      vertex -15 -16 5.75
    endloop
  endfacet
  facet normal 0 -1 0
    outer loop
      vertex 5 -16 3.5
      vertex 13 -16 5.75
      vertex 5 -16 5.75
    endloop
  endfacet
  facet normal 0 -1 0
    outer loop
      vertex 5 -16 3.5
      vertex 13 -16 0.25
      vertex 13 -16 5.75
    endloop
  endfacet
  facet normal 0 -1 0
    outer loop
      vertex -5 -16 3.5
      vertex 13 -16 0.25
      vertex 5 -16 3.5
    endloop
  endfacet
  facet normal -1 0 0
    outer loop
      vertex 14 -14 1
      vertex 14 14 5.75
      vertex 14 14 1
    endloop
  endfacet
  facet normal -1 -0 0
    outer loop
      vertex 14 14 5.75
      vertex 14 -14 1
      vertex 14 -14 5.75
    endloop
  endfacet
  facet normal -0 0 1
    outer loop
      vertex 12 -5.25 1
      vertex 14 -14 1
      vertex 14 14 1
    endloop
  endfacet
  facet normal 0 0 1
    outer loop
      vertex 12 -5.25 1
      vertex 14 14 1
      vertex 12 7.75 1
    endloop
  endfacet
  facet normal 0 0 1
    outer loop
      vertex 14 14 1
      vertex -12 7.75 1
      vertex 12 7.75 1
    endloop
  endfacet
  facet normal 0 0 1
    outer loop
      vertex -12 7.75 1
      vertex -14 14 1
      vertex -12 -5.25 1
    endloop
  endfacet
  facet normal -0 0 1
    outer loop
      vertex -14 14 1
      vertex -12 7.75 1
      vertex 14 14 1
    endloop
  endfacet
  facet normal 0 0 1
    outer loop
      vertex 14 -14 1
      vertex 12 -5.25 1
      vertex 13 -14 1
    endloop
  endfacet
  facet normal -0 0 1
    outer loop
      vertex -12 -5.25 1
      vertex 13 -14 1
      vertex 12 -5.25 1
    endloop
  endfacet
  facet normal 0 0 1
    outer loop
      vertex -12 -5.25 1
      vertex -14 -14 1
      vertex 13 -14 1
    endloop
  endfacet
  facet normal 0 0 1
    outer loop
      vertex -14 -14 1
      vertex -12 -5.25 1
      vertex -14 14 1
    endloop
  endfacet
  facet normal 1 -0 0
    outer loop
      vertex -14 -14 5.75
      vertex -14 14 1
      vertex -14 14 5.75
    endloop
  endfacet
  facet normal 1 0 0
    outer loop
      vertex -14 14 1
      vertex -14 -14 5.75
      vertex -14 -14 1
    endloop
  endfacet
  facet normal 0 -1 0
    outer loop
      vertex -14 14 1
      vertex 14 14 5.75
      vertex -14 14 5.75
    endloop
  endfacet
  facet normal 0 -1 -0
    outer loop
      vertex 14 14 5.75
      vertex -14 14 1
      vertex 14 14 1
    endloop
  endfacet
  facet normal 0 1 -0
    outer loop
      vertex 14 -14 1
      vertex 13 -14 5.75
      vertex 14 -14 5.75
    endloop
  endfacet
  facet normal 0 1 0
    outer loop
      vertex 13 -14 5.75
      vertex 14 -14 1
      vertex 13 -14 1
    endloop
  endfacet
  facet normal 0 1 0
    outer loop
      vertex 13 -14 5.75
      vertex 5 -14 3.5
      vertex 5 -14 5.75
    endloop
  endfacet
  facet normal 0 1 0
    outer loop
      vertex 5 -14 3.5
      vertex 13 -14 1
      vertex -5 -14 3.5
    endloop
  endfacet
  facet normal 0 1 -0
    outer loop
      vertex 13 -14 1
      vertex 5 -14 3.5
      vertex 13 -14 5.75
    endloop
  endfacet
  facet normal 0 1 -0
    outer loop
      vertex -5 -14 3.5
      vertex -14 -14 5.75
      vertex -5 -14 5.75
    endloop
  endfacet
  facet normal 0 1 0
    outer loop
      vertex -5 -14 3.5
      vertex -14 -14 1
      vertex -14 -14 5.75
    endloop
  endfacet
  facet normal 0 1 0
    outer loop
      vertex -14 -14 1
      vertex -5 -14 3.5
      vertex 13 -14 1
    endloop
  endfacet
  facet normal -1 0 0
    outer loop
      vertex 12 -5.25 0.25
      vertex 12 7.75 1
      vertex 12 7.75 0.25
    endloop
  endfacet
  facet normal -1 -0 0
    outer loop
      vertex 12 7.75 1
      vertex 12 -5.25 0.25
      vertex 12 -5.25 1
    endloop
  endfacet
  facet normal 1 -0 0
    outer loop
      vertex -12 -5.25 1
      vertex -12 7.75 0.25
      vertex -12 7.75 1
    endloop
  endfacet
  facet normal 1 0 0
    outer loop
      vertex -12 7.75 0.25
      vertex -12 -5.25 1
      vertex -12 -5.25 0.25
    endloop
  endfacet
  facet normal 0 -1 0
    outer loop
      vertex -12 7.75 0.25
      vertex 12 7.75 1
      vertex -12 7.75 1
    endloop
  endfacet
  facet normal 0 -1 -0
    outer loop
      vertex 12 7.75 1
      vertex -12 7.75 0.25
      vertex 12 7.75 0.25
    endloop
  endfacet
  facet normal 0 1 -0
    outer loop
      vertex 12 -5.25 0.25
      vertex -12 -5.25 1
      vertex 12 -5.25 1
    endloop
  endfacet
  facet normal 0 1 0
    outer loop
      vertex -12 -5.25 1
      vertex 12 -5.25 0.25
      vertex -12 -5.25 0.25
    endloop
  endfacet
  facet normal -1 0 0
    outer loop
      vertex 5 -16 3.5
      vertex 5 -14 5.75
      vertex 5 -14 3.5
    endloop
  endfacet
  facet normal -1 -0 0
    outer loop
      vertex 5 -14 5.75
      vertex 5 -16 3.5
      vertex 5 -16 5.75
    endloop
  endfacet
  facet normal -0 0 1
    outer loop
      vertex -5 -14 3.5
      vertex 5 -16 3.5
      vertex 5 -14 3.5
    endloop
  endfacet
  facet normal 0 0 1
    outer loop
      vertex 5 -16 3.5
      vertex -5 -14 3.5
      vertex -5 -16 3.5
    endloop
  endfacet
  facet normal 1 -0 0
    outer loop
      vertex -5 -16 5.75
      vertex -5 -14 3.5
      vertex -5 -14 5.75
    endloop
  endfacet
  facet normal 1 0 0
    outer loop
      vertex -5 -14 3.5
      vertex -5 -16 5.75
      vertex -5 -16 3.5
    endloop
  endfacet
  facet normal -1 0 0
    outer loop
      vertex 13 -20 0.25
      vertex 13 -16 5.75
      vertex 13 -16 0.25
    endloop
  endfacet
  facet normal -1 -0 0
    outer loop
      vertex 13 -16 5.75
      vertex 13 -20 0.25
      vertex 13 -20 5.75
    endloop
  endfacet
  facet normal 0 -1 0
    outer loop
      vertex 13 -20 0.25
      vertex 15 -20 5.75
      vertex 13 -20 5.75
    endloop
  endfacet
  facet normal 0 -1 -0
    outer loop
      vertex 15 -20 5.75
      vertex 13 -20 0.25
      vertex 15 -20 0.25
    endloop
  endfacet
  facet normal 1 -0 0
    outer loop
      vertex -13 16 5.75
      vertex -13 23.5 0.25
      vertex -13 23.5 5.75
    endloop
  endfacet
  facet normal 1 0 0
    outer loop
      vertex -13 23.5 0.25
      vertex -13 16 5.75
      vertex -13 16 0.25
    endloop
  endfacet
  facet normal 0 1 -0
    outer loop
      vertex -13 23.5 0.25
      vertex -15 23.5 5.75
      vertex -13 23.5 5.75
    endloop
  endfacet
  facet normal 0 1 0
    outer loop
      vertex -15 23.5 5.75
      vertex -13 23.5 0.25
      vertex -15 23.5 0.25
    endloop
  endfacet
endsolid OpenSCAD_Model
